<svg width="141" height="100" viewBox="0 0 141 100" fill="none" xmlns="http://www.w3.org/2000/svg">
<path d="M7.39 99.02C4.38 97.81 1.16 93.37 0.42 89.42C-0.43 84.9 2.54 79.25 7.03 76.84C10.27 75.11 14.25 75 75.73 75H141V78C141 79.66 140.44 81.06 139.75 81.14C139.06 81.22 136.82 81.37 134.76 81.47C127.89 81.83 124.68 87.68 129 92C130.47 93.47 132.33 94 136 94C140.89 94 141 94.07 141 97V100L75.25 99.94C39.09 99.9 8.55 99.49 7.39 99.02ZM16.5 87.58V81.16L13.18 81.58C8.92 82.13 7 84.08 7 87.87C7 91.34 10.03 94 13.97 94C16.41 94 16.5 93.78 16.5 87.58ZM14 66.02C14 63.48 14.39 63 16.45 63C22.36 63 26.08 58.98 24.57 54.22C23.87 52.01 20.01 50 16.45 50C14.39 50 14 49.52 14 46.98V43.95L68.58 44.23L123.15 44.5L126.58 48.24C129.42 51.34 130 52.74 130 56.5C130 60.26 129.42 61.66 126.58 64.76L123.15 68.5L68.58 68.77L14 69.05V66.02ZM121.55 60.55C124.66 57.44 124.64 55.55 121.48 52.39C118.65 49.56 113.16 49.27 113.92 52C114.15 52.82 114.28 55.64 114.21 58.25C114.09 62.69 114.24 63 116.58 63C117.96 63 120.2 61.9 121.55 60.55ZM41.5 36.1C36.81 33.93 32.83 29.81 31.04 25.25C29.9 22.36 29.33 22 25.88 22C22.24 22 22 21.82 22 19C22 16.17 22.23 16 25.95 16C29.65 16 30.03 15.72 31.8 11.72C37.47 -1.11 52.95 -3.36 63.01 7.17C65.43 9.7 66.81 10.28 70.6 10.38C74.78 10.49 75.65 10.09 79.39 6.35C84.61 1.12 90.34 -0.660001 96.76 0.959999C102.74 2.47 107.67 6.59 109.64 11.75C111.17 15.74 111.51 16 115.14 16C118.76 16 119 16.18 119 19C119 21.76 118.72 22 115.52 22C112.34 22 111.81 22.44 109.5 27C105.85 34.21 100.48 37.52 92.57 37.44C82.59 37.35 75.35 31.17 74.04 21.65C73.08 14.65 68.35 14.08 67.49 20.85C66.52 28.51 61.15 35.03 54.22 36.96C48.96 38.42 46.08 38.22 41.5 36.1ZM55.59 29.35C60.99 25.81 62.55 18.05 59.01 12.25C57.92 10.46 56.78 9 56.47 9C56.17 9 52 12.86 47.21 17.59L38.5 26.18L41.31 28.59C44.69 31.5 51.73 31.88 55.59 29.35ZM98.96 29.36C104.89 25.86 106.85 17.62 102.93 12.63C101.79 11.19 100.33 10 99.7 10C98.26 10 83 25.07 83 26.49C83 28.36 88.4 30.95 92.35 30.97C94.46 30.99 97.44 30.26 98.96 29.36Z" fill="#DDB100"/>
</svg>
